<mxfile host="app.diagrams.net" modified="2021-01-15T08:25:57.119Z" agent="5.0 (Windows NT 10.0; Win64; x64) AppleWebKit/537.36 (KHTML, like Gecko) Chrome/87.0.4280.141 Safari/537.36 Edg/87.0.664.75" etag="UlSLhLTOIIImj5GTefJG" version="14.2.3" type="github">
  <diagram id="bYCMtpQb0P-SUWCextDR" name="Page-1">
    <mxGraphModel dx="728" dy="519" grid="1" gridSize="10" guides="1" tooltips="1" connect="1" arrows="1" fold="1" page="1" pageScale="1" pageWidth="827" pageHeight="1169" background="none" math="0" shadow="0">
      <root>
        <mxCell id="0" />
        <mxCell id="1" parent="0" />
      </root>
    </mxGraphModel>
  </diagram>
</mxfile>
